<svg
  width="48"
  height="48"
  viewBox="0 0 120 120"
  fill="none"
  xmlns="http://www.w3.org/2000/svg"
  shape-rendering="geometricPrecision"
  text-rendering="geometricPrecision"
>
  <g transform="translate(20,15) scale(0.4)">
    <path
      d="M50 81 C53.88343737 75.38672799 57.40814951 69.64392272 60.7668457 63.70068359 C63.36311733 59.10723349 66.00781109 54.54528832 68.6875 50 C69.09677734 49.30575928 69.50605469 48.61151855 69.92773438 47.89624023 C70.80413994 46.4109057 71.68094612 44.92580749 72.55810547 43.44091797 C74.14521349 40.75417465 75.73080702 38.06654025 77.31640625 35.37890625 C78.46084373 33.44004881 79.60537397 31.50124613 80.75 29.5625 C81.28069092 28.66337891 81.81138184 27.76425781 82.3581543 26.83789062 C84.95948061 22.43533368 87.57342184 18.04114196 90.2109375 13.66015625 C92.15403737 10.42685589 94.06091192 7.18304298 95.875 3.875 C96.28492188 3.12992188 96.69484375 2.38484375 97.1171875 1.6171875 C97.55417969 0.81667969 97.55417969 0.81667969 98 0 C98.99 0 99.98 0 101 0 C101.44315552 0.78141357 101.44315552 0.78141357 101.89526367 1.57861328 C108.22952011 12.73555605 114.64639631 23.83745391 121.19189453 34.87182617 C126.13860664 43.21595625 131.04788211 51.58343925 135.84423828 60.01513672 C136.61044147 61.3309863 137.40577434 62.6303275 138.22998047 63.91064453 C141.05600609 68.39818457 141.05600609 68.39818457 140.78125 71.35058594 C139.88843222 74.37835422 138.63953859 76.89558751 137.12890625 79.66796875 C136.55462891 80.72564453 135.98035156 81.78332031 135.38867188 82.87304688 C134.4847168 84.51370117 134.4847168 84.51370117 133.5625 86.1875 C132.96373047 87.29287109 132.36496094 88.39824219 131.74804688 89.53710938 C127.2772174 97.7227826 127.2772174 97.7227826 125 100 C124.01 100 123.02 100 122 100 C121.5153125 99.14019531 121.030625 98.28039062 120.53125 97.39453125 C116.45527889 90.19536011 112.26250767 83.09549161 107.8984375 76.06640625 C105.2191027 71.73867411 102.60565564 67.37236913 100 63 C97.01807603 65.75891683 95.09543793 68.32804052 93.25 71.9375 C91.09428663 76.01834048 88.82611743 79.96439978 86.375 83.875 C84.9108958 86.24667756 83.45179475 88.62081023 82 91 C81.48969238 91.83547363 80.97938477 92.67094727 80.45361328 93.53173828 C78.76242854 96.3226633 77.09789237 99.1281646 75.4375 101.9375 C74.88819824 102.83774902 74.33889648 103.73799805 73.77294922 104.66552734 C70.83712028 109.6161022 70.83712028 109.6161022 69.90625 115.1875 C71.27976018 118.71938333 73.04193684 121.87370069 75.0625 125.0625 C75.65671753 126.03280151 75.65671753 126.03280151 76.26293945 127.02270508 C78.27186621 130.29244783 80.33444822 133.52180904 82.4453125 136.7265625 C82.82292725 137.31042725 83.20054199 137.89429199 83.58959961 138.49584961 C84.63323539 140.10388882 85.69695956 141.69883776 86.76171875 143.29296875 C88 146 88 146 87.34057617 148.02612305 C85.71586905 150.41835708 84.41111887 151.10449559 81.7890625 152.2890625 C80.95632813 152.67320312 80.12359375 153.05734375 79.265625 153.453125 C78.39421875 153.83984375 77.5228125 154.2265625 76.625 154.625 C74.90883067 155.40880271 73.19268403 156.19265513 71.4765625 156.9765625 C70.71424316 157.31768066 69.95192383 157.65879883 69.16650391 158.01025391 C67.02900695 158.94167841 67.02900695 158.94167841 65.22000122 160.04766846 C62.44666522 161.23736841 60.32901324 161.24039386 57.31347656 161.22705078 C56.17259583 161.22689972 55.03171509 161.22674866 53.85626221 161.22659302 C52.63010193 161.21627045 51.40394165 161.20594788 50.140625 161.1953125"
      fill="#000000"
      stroke="#000000"
      stroke-width="0.5"
      stroke-linejoin="round"
      stroke-linecap="round"
    />
    <path
      d="M50 81 C46.11656263 75.38672799 42.59185049 69.64392272 39.2331543 63.70068359 C36.63688267 59.10723349 33.99218891 54.54528832 31.3125 50 C30.90322266 49.30575928 30.49394531 48.61151855 30.07226562 47.89624023 C29.19586006 46.4109057 28.31905388 44.92580749 27.44189453 43.44091797 C25.85478651 40.75417465 24.26919298 38.06654025 22.68359375 35.37890625 C21.53915627 33.44004881 20.39462603 31.50124613 19.25 29.5625 C18.71930908 28.66337891 18.18861816 27.76425781 17.6418457 26.83789062 C15.04051939 22.43533368 12.42657816 18.04114196 9.7890625 13.66015625 C7.84596263 10.42685589 5.93908808 7.18304298 4.125 3.875 C3.71507812 3.12992188 3.30515625 2.38484375 2.8828125 1.6171875 C2.44582031 0.81667969 2.44582031 0.81667969 2 0 C1.01 0 0.02 0 -1 0 C-1.44315552 0.78141357 -1.44315552 0.78141357 -1.89526367 1.57861328 C-8.22952011 12.73555605 -14.64639631 23.83745391 -21.19189453 34.87182617 C-26.13860664 43.21595625 -31.04788211 51.58343925 -35.84423828 60.01513672 C-36.61044147 61.3309863 -37.40577434 62.6303275 -38.22998047 63.91064453 C-41.05600609 68.39818457 -41.05600609 68.39818457 -40.78125 71.35058594 C-39.88843222 74.37835422 -38.63953859 76.89558751 -37.12890625 79.66796875 C-36.55462891 80.72564453 -35.98035156 81.78332031 -35.38867188 82.87304688 C-34.4847168 84.51370117 -34.4847168 84.51370117 -33.5625 86.1875 C-32.96373047 87.29287109 -32.36496094 88.39824219 -31.74804688 89.53710938 C-27.2772174 97.7227826 -27.2772174 97.7227826 -25 100 C-24.01 100 -23.02 100 -22 100 C-21.5153125 99.14019531 -21.030625 98.28039062 -20.53125 97.39453125 C-16.45527889 90.19536011 -12.26250767 83.09549161 -7.8984375 76.06640625 C-5.2191027 71.73867411 -2.60565564 67.37236913 0 63 C2.98192397 65.75891683 4.90456207 68.32804052 6.75 71.9375 C8.90571337 76.01834048 11.17388257 79.96439978 13.625 83.875 C15.0891042 86.24667756 16.54820525 88.62081023 18 91 C18.51030762 91.83547363 19.02061523 92.67094727 19.54638672 93.53173828 C21.23757146 96.3226633 22.90210763 99.1281646 24.5625 101.9375 C25.11180176 102.83774902 25.66110352 103.73799805 26.22705078 104.66552734 C29.16287972 109.6161022 29.16287972 109.6161022 30.09375 115.1875 C28.72023982 118.71938333 26.95806316 121.87370069 24.9375 125.0625 C24.34328247 126.03280151 24.34328247 126.03280151 23.73706055 127.02270508 C21.72813379 130.29244783 19.66555178 133.52180904 17.5546875 136.7265625 C17.17707275 137.31042725 16.79945801 137.89429199 16.41040039 138.49584961 C15.36676461 140.10388882 14.30304044 141.69883776 13.23828125 143.29296875 C12 146 12 146 12.65942383 148.02612305 C14.28413095 150.41835708 15.58888113 151.10449559 18.2109375 152.2890625 C19.04367187 152.67320312 19.87640625 153.05734375 20.734375 153.453125 C21.60578125 153.83984375 22.4771875 154.2265625 23.375 154.625 C25.09116933 155.40880271 26.80731597 156.19265513 28.5234375 156.9765625 C29.28575684 157.31768066 30.04807617 157.65879883 30.83349609 158.01025391 C32.97099305 158.94167841 32.97099305 158.94167841 34.77999878 160.04766846 C37.55333478 161.23736841 39.67098676 161.24039386 42.68652344 161.22705078 C43.82740417 161.22689972 44.96828491 161.22674866 46.14373779 161.22659302 C47.36989807 161.21627045 48.59605835 161.20594788 49.859375 161.1953125"
      fill="#000000"
      stroke="#000000"
      stroke-width="0.5"
      stroke-linejoin="round"
      stroke-linecap="round"
    />
  </g>
</svg>