<?xml version="1.0" encoding="UTF-8"?>
<svg version="1.1" xmlns="http://www.w3.org/2000/svg" width="500" height="500">
<path d="M0 0 C0.66 0 1.32 0 2 0 C3.6640625 2.3515625 3.6640625 2.3515625 5.625 5.625 C6.14852051 6.49439209 6.14852051 6.49439209 6.68261719 7.38134766 C10.91118177 14.44346694 14.95708839 21.61166479 19.00439453 28.77856445 C21.05059106 32.38416471 23.1730428 35.92532845 25.375 39.4375 C30.0264818 46.95681269 34.46207248 54.59898651 38.89990234 62.24584961 C42.54809079 68.52918346 46.24258264 74.78132864 50 81 C53.88343737 75.38672799 57.40814951 69.64392272 60.7668457 63.70068359 C63.36311733 59.10723349 66.00781109 54.54528832 68.6875 50 C69.09677734 49.30575928 69.50605469 48.61151855 69.92773438 47.89624023 C70.80413994 46.4109057 71.68094612 44.92580749 72.55810547 43.44091797 C74.14521349 40.75417465 75.73080702 38.06654025 77.31640625 35.37890625 C78.46084373 33.44004881 79.60537397 31.50124613 80.75 29.5625 C81.28069092 28.66337891 81.81138184 27.76425781 82.3581543 26.83789062 C84.95948061 22.43533368 87.57342184 18.04114196 90.2109375 13.66015625 C92.15403737 10.42685589 94.06091192 7.18304298 95.875 3.875 C96.28492188 3.12992188 96.69484375 2.38484375 97.1171875 1.6171875 C97.55417969 0.81667969 97.55417969 0.81667969 98 0 C98.99 0 99.98 0 101 0 C101.44315552 0.78141357 101.44315552 0.78141357 101.89526367 1.57861328 C108.22952011 12.73555605 114.64639631 23.83745391 121.19189453 34.87182617 C126.13860664 43.21595625 131.04788211 51.58343925 135.84423828 60.01513672 C136.61044147 61.3309863 137.40577434 62.6303275 138.22998047 63.91064453 C141.05600609 68.39818457 141.05600609 68.39818457 140.78125 71.35058594 C139.88843222 74.37835422 138.63953859 76.89558751 137.12890625 79.66796875 C136.55462891 80.72564453 135.98035156 81.78332031 135.38867188 82.87304688 C134.4847168 84.51370117 134.4847168 84.51370117 133.5625 86.1875 C132.96373047 87.29287109 132.36496094 88.39824219 131.74804688 89.53710938 C127.2772174 97.7227826 127.2772174 97.7227826 125 100 C124.01 100 123.02 100 122 100 C121.5153125 99.14019531 121.030625 98.28039062 120.53125 97.39453125 C116.45527889 90.19536011 112.26250767 83.09549161 107.8984375 76.06640625 C105.2191027 71.73867411 102.60565564 67.37236913 100 63 C97.01807603 65.75891683 95.09543793 68.32804052 93.25 71.9375 C91.09428663 76.01834048 88.82611743 79.96439978 86.375 83.875 C84.9108958 86.24667756 83.45179475 88.62081023 82 91 C81.48969238 91.83547363 80.97938477 92.67094727 80.45361328 93.53173828 C78.76242854 96.3226633 77.09789237 99.1281646 75.4375 101.9375 C74.88819824 102.83774902 74.33889648 103.73799805 73.77294922 104.66552734 C70.83712028 109.6161022 70.83712028 109.6161022 69.90625 115.1875 C71.27976018 118.71938333 73.04193684 121.87370069 75.0625 125.0625 C75.65671753 126.03280151 75.65671753 126.03280151 76.26293945 127.02270508 C78.27186621 130.29244783 80.33444822 133.52180904 82.4453125 136.7265625 C82.82292725 137.31042725 83.20054199 137.89429199 83.58959961 138.49584961 C84.63323539 140.10388882 85.69695956 141.69883776 86.76171875 143.29296875 C88 146 88 146 87.34057617 148.02612305 C85.71586905 150.41835708 84.41111887 151.10449559 81.7890625 152.2890625 C80.95632813 152.67320312 80.12359375 153.05734375 79.265625 153.453125 C78.39421875 153.83984375 77.5228125 154.2265625 76.625 154.625 C74.90883067 155.40880271 73.19268403 156.19265513 71.4765625 156.9765625 C70.71424316 157.31768066 69.95192383 157.65879883 69.16650391 158.01025391 C67.02900695 158.94167841 67.02900695 158.94167841 65.22000122 160.04766846 C62.44666522 161.23736841 60.32901324 161.24039386 57.31347656 161.22705078 C56.17259583 161.22689972 55.03171509 161.22674866 53.85626221 161.22659302 C52.63010193 161.21627045 51.40394165 161.20594788 50.140625 161.1953125 C48.88111023 161.1924826 47.62159546 161.18965271 46.32391357 161.18673706 C42.98326098 161.17744121 39.64288331 161.15948583 36.30230713 161.1373291 C32.89036428 161.11683208 29.47839298 161.10772712 26.06640625 161.09765625 C19.37752832 161.07559907 12.68878003 161.04212367 6 161 C7.38018252 156.69154702 8.97091435 153.06591348 11.3125 149.1875 C13.94440073 144.77906628 16.4979863 140.34669406 18.95703125 135.83984375 C19.89681036 134.18203116 20.94293187 132.5856022 22 131 C24.06298828 130.65942383 24.06298828 130.65942383 26.5703125 130.70703125 C27.46621094 130.71669922 28.36210937 130.72636719 29.28515625 130.73632812 C30.22230469 130.76146484 31.15945312 130.78660156 32.125 130.8125 C33.06988281 130.82603516 34.01476562 130.83957031 34.98828125 130.85351562 C37.32608779 130.88893694 39.66276237 130.93832729 42 131 C37.20012436 122.81315575 32.39530949 114.63024091 27.5 106.5 C21.56240115 96.6310485 15.71414404 86.70973251 9.95703125 76.734375 C9.45349121 75.86200195 8.94995117 74.98962891 8.43115234 74.09082031 C7.44942289 72.38795777 6.46923275 70.6842067 5.49072266 68.97949219 C5.04905762 68.21282227 4.60739258 67.44615234 4.15234375 66.65625 C3.76038818 65.97369141 3.36843262 65.29113281 2.96459961 64.58789062 C2.0965846 63.01751151 2.0965846 63.01751151 1 62 C-0.25403752 64.0830271 -1.50731817 66.16650458 -2.75976562 68.25048828 C-3.84326212 70.05293122 -4.92791191 71.85468135 -6.01367188 73.65576172 C-8.68256517 78.09322704 -11.32460774 82.54063564 -13.8828125 87.04296875 C-14.3257666 87.81713135 -14.7687207 88.59129395 -15.22509766 89.38891602 C-16.05917415 90.85182421 -16.88474546 92.3196228 -17.70068359 93.79272461 C-21.1329901 99.78716508 -21.1329901 99.78716508 -25 101 C-27.61891958 96.36160244 -30.23215042 91.72009344 -32.83691406 87.07373047 C-33.85546898 85.25769237 -34.87673012 83.44317264 -35.8984375 81.62890625 C-36.42695313 80.67886719 -36.95546875 79.72882813 -37.5 78.75 C-37.9640625 77.91984375 -38.428125 77.0896875 -38.90625 76.234375 C-39.97643361 74.04814277 -40.65906174 72.4054011 -41 70 C-40.19506836 67.97241211 -40.19506836 67.97241211 -38.90234375 65.83984375 C-38.20214111 64.65817627 -38.20214111 64.65817627 -37.48779297 63.45263672 C-36.75133545 62.23858154 -36.75133545 62.23858154 -36 61 C-35.10236952 59.44058196 -34.20781334 57.87939009 -33.31640625 56.31640625 C-32.39925953 54.73129492 -31.48128735 53.14666093 -30.5625 51.5625 C-30.11068359 50.78068359 -29.65886719 49.99886719 -29.19335938 49.19335938 C-26.85843547 45.16271768 -24.49708188 41.1504134 -22.09375 37.16015625 C-18.02524763 30.40122443 -14.0804824 23.57043359 -10.12304688 16.74609375 C-8.42449177 13.82524872 -6.71590572 10.91068069 -5 8 C-4.51289551 7.16758789 -4.02579102 6.33517578 -3.52392578 5.47753906 C-2.4065035 3.61612401 -1.2117536 1.80143048 0 0 Z " fill="#F0C614" transform="translate(200,171)"/>
<path d="M0 0 C0.99 0 1.98 0 3 0 C3.29543701 0.52094238 3.59087402 1.04188477 3.89526367 1.57861328 C10.22952011 12.73555605 16.64639631 23.83745391 23.19189453 34.87182617 C28.13860664 43.21595625 33.04788211 51.58343925 37.84423828 60.01513672 C38.61044147 61.3309863 39.40577434 62.6303275 40.22998047 63.91064453 C43.05600609 68.39818457 43.05600609 68.39818457 42.78125 71.35058594 C41.88843222 74.37835422 40.63953859 76.89558751 39.12890625 79.66796875 C38.55462891 80.72564453 37.98035156 81.78332031 37.38867188 82.87304688 C36.78603516 83.96681641 36.18339844 85.06058594 35.5625 86.1875 C34.96373047 87.29287109 34.36496094 88.39824219 33.74804688 89.53710938 C29.2772174 97.7227826 29.2772174 97.7227826 27 100 C26.01 100 25.02 100 24 100 C23.5153125 99.14019531 23.030625 98.28039062 22.53125 97.39453125 C18.45527889 90.19536011 14.26250767 83.09549161 9.8984375 76.06640625 C7.2191027 71.73867411 4.60565564 67.37236913 2 63 C-0.98192397 65.75891683 -2.90456207 68.32804052 -4.75 71.9375 C-6.90571337 76.01834048 -9.17388257 79.96439978 -11.625 83.875 C-15.93071379 90.78416864 -19.95139116 97.84624636 -23.96337891 104.92919922 C-24.45757324 105.8007666 -24.95176758 106.67233398 -25.4609375 107.5703125 C-25.90228027 108.35164551 -26.34362305 109.13297852 -26.79833984 109.93798828 C-27.80358847 111.66296388 -28.89253365 113.33880047 -30 115 C-30.27537598 114.48880615 -30.55075195 113.9776123 -30.83447266 113.45092773 C-33.29834509 108.94115231 -35.8763878 104.52713564 -38.5859375 100.16015625 C-39.51599609 98.6606543 -39.51599609 98.6606543 -40.46484375 97.13085938 C-41.75709862 95.05505938 -43.05411242 92.98221565 -44.35546875 90.91210938 C-44.96777344 89.92146484 -45.58007812 88.93082031 -46.2109375 87.91015625 C-46.77087402 87.01433838 -47.33081055 86.11852051 -47.90771484 85.19555664 C-48.26816895 84.47102295 -48.62862305 83.74648926 -49 83 C-47.96403244 80.92806488 -46.75315621 79.15716377 -45.4375 77.25 C-42.48650121 72.84803506 -39.83954956 68.31280829 -37.23291016 63.70019531 C-34.63666846 59.10693756 -31.99209662 54.54513178 -29.3125 50 C-28.90322266 49.30575928 -28.49394531 48.61151855 -28.07226562 47.89624023 C-27.19586006 46.4109057 -26.31905388 44.92580749 -25.44189453 43.44091797 C-23.85478651 40.75417465 -22.26919298 38.06654025 -20.68359375 35.37890625 C-19.53915627 33.44004881 -18.39462603 31.50124613 -17.25 29.5625 C-16.71930908 28.66337891 -16.18861816 27.76425781 -15.6418457 26.83789062 C-13.04051939 22.43533368 -10.42657816 18.04114196 -7.7890625 13.66015625 C-5.84596263 10.42685589 -3.93908808 7.18304298 -2.125 3.875 C-1.71507812 3.12992188 -1.30515625 2.38484375 -0.8828125 1.6171875 C-0.59148437 1.08351562 -0.30015625 0.54984375 0 0 Z " fill="#E6AE16" transform="translate(298,171)"/>
<path d="M0 0 C0.66 0 1.32 0 2 0 C3.6640625 2.3515625 3.6640625 2.3515625 5.625 5.625 C6.14743286 6.49112915 6.14743286 6.49112915 6.68041992 7.37475586 C9.96834688 12.85905635 13.1158909 18.42413769 16.23828125 24.00390625 C17.69943562 26.48884063 19.20985423 28.7471704 21 31 C20.67 31.66 20.34 32.32 20 33 C19.01 33 18.02 33 17 33 C15.60272683 34.77328765 15.60272683 34.77328765 14.4375 37 C13.18359375 39.25 13.18359375 39.25 12 41 C11.34 41 10.68 41 10 41 C9.896875 41.53625 9.79375 42.0725 9.6875 42.625 C8.81180468 45.65012928 7.52752839 48.2504489 6 51 C5.01 51.495 5.01 51.495 4 52 C3.20089239 54.99665354 2.72093036 57.13742111 3.6875 60.125 C5.2436626 62.34808943 7.05325601 64.11409176 9 66 C10.7866789 68.68001835 11.9322137 71.03128744 13.125 74 C13.47820312 74.86625 13.83140625 75.7325 14.1953125 76.625 C15 79 15 79 15 82 C15.99 82.495 15.99 82.495 17 83 C16.34 83.66 15.68 84.32 15 85 C14.6596875 84.42894531 14.319375 83.85789062 13.96875 83.26953125 C9.70753959 76.14107021 5.36366599 69.06603782 1 62 C-0.25403752 64.0830271 -1.50731817 66.16650458 -2.75976562 68.25048828 C-3.84326212 70.05293122 -4.92791191 71.85468135 -6.01367188 73.65576172 C-8.68256517 78.09322704 -11.32460774 82.54063564 -13.8828125 87.04296875 C-14.3257666 87.81713135 -14.7687207 88.59129395 -15.22509766 89.38891602 C-16.05917415 90.85182421 -16.88474546 92.3196228 -17.70068359 93.79272461 C-21.1329901 99.78716508 -21.1329901 99.78716508 -25 101 C-27.61891958 96.36160244 -30.23215042 91.72009344 -32.83691406 87.07373047 C-33.85546898 85.25769237 -34.87673012 83.44317264 -35.8984375 81.62890625 C-36.42695313 80.67886719 -36.95546875 79.72882813 -37.5 78.75 C-37.9640625 77.91984375 -38.428125 77.0896875 -38.90625 76.234375 C-39.97643361 74.04814277 -40.65906174 72.4054011 -41 70 C-40.19506836 67.97241211 -40.19506836 67.97241211 -38.90234375 65.83984375 C-38.20214111 64.65817627 -38.20214111 64.65817627 -37.48779297 63.45263672 C-36.75133545 62.23858154 -36.75133545 62.23858154 -36 61 C-35.10236952 59.44058196 -34.20781334 57.87939009 -33.31640625 56.31640625 C-32.39925953 54.73129492 -31.48128735 53.14666093 -30.5625 51.5625 C-30.11068359 50.78068359 -29.65886719 49.99886719 -29.19335938 49.19335938 C-26.85843547 45.16271768 -24.49708188 41.1504134 -22.09375 37.16015625 C-18.02524763 30.40122443 -14.0804824 23.57043359 -10.12304688 16.74609375 C-8.42449177 13.82524872 -6.71590572 10.91068069 -5 8 C-4.51289551 7.16758789 -4.02579102 6.33517578 -3.52392578 5.47753906 C-2.4065035 3.61612401 -1.2117536 1.80143048 0 0 Z " fill="#E09E19" transform="translate(200,171)"/>
<path d="M0 0 C0.33 0 0.66 0 1 0 C1.19388736 4.84718393 0.68831526 8.46265273 -1 13 C-1 13.66 -1 14.32 -1 15 C-1.804375 15.391875 -2.60875 15.78375 -3.4375 16.1875 C-6.37744502 17.83299354 -6.37744502 17.83299354 -6.75 21.5 C-6.8325 22.655 -6.915 23.81 -7 25 C-7.33 25.99 -7.66 26.98 -8 28 C-8.66 27.01 -9.32 26.02 -10 25 C-10.268125 26.093125 -10.53625 27.18625 -10.8125 28.3125 C-11.93138104 31.78692006 -12.46397554 32.69452322 -15 35 C-15 35.99 -15 36.98 -15 38 C-15.721875 38.4125 -16.44375 38.825 -17.1875 39.25 C-20.91574551 41.56979721 -22.69299907 44.32719791 -25 48 C-25.72316406 49.11181641 -25.72316406 49.11181641 -26.4609375 50.24609375 C-29.37857899 54.93144036 -29.37857899 54.93144036 -29.75 60.3125 C-29.5025 61.199375 -29.255 62.08625 -29 63 C-29.32380126 64.33568021 -29.65657551 65.66923011 -30 67 C-29.61432869 69.68149993 -29.61432869 69.68149993 -29 72 C-28.01 72.33 -27.02 72.66 -26 73 C-23.75 75.3125 -23.75 75.3125 -22 78 C-22.25 80.3125 -22.25 80.3125 -23 82 C-21.515 81.01 -21.515 81.01 -20 80 C-17.95703125 79.5859375 -17.95703125 79.5859375 -15.8125 79.375 C-14.554375 79.25125 -13.29625 79.1275 -12 79 C-12 78.01 -12 77.02 -12 76 C-11.34 76 -10.68 76 -10 76 C-9.855625 75.236875 -9.71125 74.47375 -9.5625 73.6875 C-9 71 -9 71 -8 68 C-7.01 68 -6.02 68 -5 68 C-5 66.35 -5 64.7 -5 63 C-4.34 63 -3.68 63 -3 63 C-3 62.01 -3 61.02 -3 60 C-2.01 59.34 -1.02 58.68 0 58 C1.2188121 54.44327821 1.2188121 54.44327821 2 51 C2.66 51 3.32 51 4 51 C4 50.34 4 49.68 4 49 C4.99 49.33 5.98 49.66 7 50 C5.50138744 54.14049656 3.43006146 57.77085053 1.125 61.5 C-3.40368988 68.92594985 -7.72365411 76.46313579 -12.01318359 84.02929688 C-12.74722412 85.3219043 -12.74722412 85.3219043 -13.49609375 86.640625 C-13.93107178 87.40922852 -14.3660498 88.17783203 -14.81420898 88.96972656 C-15.81518695 90.68356901 -16.89906155 92.34859232 -18 94 C-18.27537598 93.48880615 -18.55075195 92.9776123 -18.83447266 92.45092773 C-21.29834509 87.94115231 -23.8763878 83.52713564 -26.5859375 79.16015625 C-27.51599609 77.6606543 -27.51599609 77.6606543 -28.46484375 76.13085938 C-29.75709862 74.05505938 -31.05411242 71.98221565 -32.35546875 69.91210938 C-32.96777344 68.92146484 -33.58007812 67.93082031 -34.2109375 66.91015625 C-34.77087402 66.01433838 -35.33081055 65.11852051 -35.90771484 64.19555664 C-36.26816895 63.47102295 -36.62862305 62.74648926 -37 62 C-35.96403244 59.92806488 -34.75315621 58.15716377 -33.4375 56.25 C-30.48740476 51.84938287 -27.84149945 47.31546475 -25.23510742 42.70458984 C-20.92312091 35.07746852 -16.46687454 27.53717713 -12 20 C-11.47196777 19.10684082 -10.94393555 18.21368164 -10.39990234 17.29345703 C-8.74997517 14.50561577 -7.09450913 11.72113668 -5.4375 8.9375 C-4.9125293 8.04981934 -4.38755859 7.16213867 -3.84667969 6.24755859 C-3.35973633 5.4323877 -2.87279297 4.6172168 -2.37109375 3.77734375 C-1.93724365 3.04765381 -1.50339355 2.31796387 -1.05639648 1.56616211 C-0.53348022 0.79091187 -0.53348022 0.79091187 0 0 Z " fill="#D79723" transform="translate(286,192)"/>
<path d="M0 0 C0.99 0.33 1.98 0.66 3 1 C1.50138744 5.14049656 -0.56993854 8.77085053 -2.875 12.5 C-7.40368988 19.92594985 -11.72365411 27.46313579 -16.01318359 35.02929688 C-16.74722412 36.3219043 -16.74722412 36.3219043 -17.49609375 37.640625 C-17.93107178 38.40922852 -18.3660498 39.17783203 -18.81420898 39.96972656 C-19.81518695 41.68356901 -20.89906155 43.34859232 -22 45 C-22.28770264 44.472854 -22.57540527 43.94570801 -22.87182617 43.40258789 C-26.21363693 37.3280714 -29.72910919 31.37208283 -33.3125 25.4375 C-34.13717773 24.06754883 -34.13717773 24.06754883 -34.97851562 22.66992188 C-36.31765197 20.44579108 -37.65816545 18.22250361 -39 16 C-37.35 14.68 -35.7 13.36 -34 12 C-34 12.99 -34 13.98 -34 15 C-33.8503356 16.39775858 -33.68279513 17.7936871 -33.5 19.1875 C-33.335 20.445625 -33.17 21.70375 -33 23 C-32.01 23.33 -31.02 23.66 -30 24 C-27.75 26.3125 -27.75 26.3125 -26 29 C-26.25 31.3125 -26.25 31.3125 -27 33 C-26.01 32.34 -25.02 31.68 -24 31 C-21.95703125 30.5859375 -21.95703125 30.5859375 -19.8125 30.375 C-18.554375 30.25125 -17.29625 30.1275 -16 30 C-16 29.01 -16 28.02 -16 27 C-15.34 27 -14.68 27 -14 27 C-13.7834375 25.8553125 -13.7834375 25.8553125 -13.5625 24.6875 C-13 22 -13 22 -12 19 C-11.01 19 -10.02 19 -9 19 C-9 17.35 -9 15.7 -9 14 C-8.34 14 -7.68 14 -7 14 C-7 13.01 -7 12.02 -7 11 C-6.01 10.34 -5.02 9.68 -4 9 C-2.7811879 5.44327821 -2.7811879 5.44327821 -2 2 C-1.34 2 -0.68 2 0 2 C0 1.34 0 0.68 0 0 Z " fill="#A97B26" transform="translate(290,241)"/>
<path d="M0 0 C0.66 0.99 1.32 1.98 2 3 C1.01 4.485 1.01 4.485 0 6 C0.061875 6.78375 0.12375 7.5675 0.1875 8.375 C0 11 0 11 -2.375 13.8125 C-5 16 -5 16 -7 16 C-7.268125 16.86625 -7.53625 17.7325 -7.8125 18.625 C-8.97111987 21.91791964 -10.38209839 24.91127875 -12 28 C-12.66 28 -13.32 28 -14 28 C-14 28.99 -14 29.98 -14 31 C-14.66 31 -15.32 31 -16 31 C-17.00392976 37.525434 -17.00392976 37.525434 -16 44 C-15.34 44 -14.68 44 -14 44 C-13.67 46.64 -13.34 49.28 -13 52 C-12.34 52 -11.68 52 -11 52 C-10.67 54.64 -10.34 57.28 -10 60 C-12.97437558 56.26023136 -15.3951785 52.23557789 -17.8125 48.125 C-18.24498047 47.43019531 -18.67746094 46.73539063 -19.12304688 46.01953125 C-22.12958611 40.86130077 -22.12958611 40.86130077 -21.546875 36.98828125 C-19.62151493 33.26883566 -17.60677651 29.6450369 -15.4375 26.0625 C-14.78019897 24.96119751 -14.78019897 24.96119751 -14.10961914 23.83764648 C-12.74547965 21.55493578 -11.37335008 19.27717877 -10 17 C-8.70961942 14.85062706 -7.42033219 12.7006011 -6.13110352 10.55053711 C-5.34927537 9.24834309 -4.56596403 7.94703816 -3.78100586 6.64672852 C-1.80222875 3.37265323 -1.80222875 3.37265323 0 0 Z " fill="#9A6C23" transform="translate(181,203)"/>
<path d="M0 0 C1.22589844 0.01353516 1.22589844 0.01353516 2.4765625 0.02734375 C3.10304688 0.03894531 3.72953125 0.05054688 4.375 0.0625 C1.72654504 5.35940991 -7.17931421 8.19804903 -12.49029541 10.18231201 C-22.98808111 13.12996612 -34.53035701 11.94686509 -45.3125 11.625 C-47.97193623 11.5745229 -50.63132521 11.53870497 -53.29101562 11.50195312 C-59.73734405 11.40386925 -66.18081006 11.25417839 -72.625 11.0625 C-71.965 9.7425 -71.305 8.4225 -70.625 7.0625 C-70.295 7.7225 -69.965 8.3825 -69.625 9.0625 C-51.475 9.0625 -33.325 9.0625 -14.625 9.0625 C-14.625 8.0725 -14.625 7.0825 -14.625 6.0625 C-11.97271188 4.98724806 -9.34131546 3.96793849 -6.625 3.0625 C-6.625 2.4025 -6.625 1.7425 -6.625 1.0625 C-4.21954362 -0.14022819 -2.67503047 -0.03821472 0 0 Z " fill="#AFA027" transform="translate(278.625,320.9375)"/>
<path d="M0 0 C1.32 0 2.64 0 4 0 C2.60805453 3.71830852 0.91469912 7.06271811 -1.08203125 10.4921875 C-1.68466797 11.52730469 -2.28730469 12.56242188 -2.90820312 13.62890625 C-3.53662109 14.70011719 -4.16503906 15.77132812 -4.8125 16.875 C-5.42931641 17.93847656 -6.04613281 19.00195312 -6.68164062 20.09765625 C-13.11246807 31.10045348 -13.11246807 31.10045348 -17 36 C-17.66 36 -18.32 36 -19 36 C-22 30.25 -22 30.25 -22 28 C-19.42786866 26.38050989 -18.32330841 25.95591249 -15.25 26.375 C-14.13625 26.684375 -14.13625 26.684375 -13 27 C-13 25.68 -13 24.36 -13 23 C-12.34 23 -11.68 23 -11 23 C-10.34 21.02 -9.68 19.04 -9 17 C-8.34 17 -7.68 17 -7 17 C-6.855625 16.4225 -6.71125 15.845 -6.5625 15.25 C-6.04166667 13.16666667 -5.52083333 11.08333333 -5 9 C-4.01 9 -3.02 9 -2 9 C-2.04125 8.2575 -2.0825 7.515 -2.125 6.75 C-1.99601866 3.91241048 -1.42948778 2.41226062 0 0 Z " fill="#9D7324" transform="translate(194,236)"/>
<path d="M0 0 C4.875 3.625 4.875 3.625 6 7 C7.31200404 8.35432675 8.64631404 9.68733482 10 11 C11.7866789 13.68001835 12.9322137 16.03128744 14.125 19 C14.47820312 19.86625 14.83140625 20.7325 15.1953125 21.625 C16 24 16 24 16 27 C16.66 27.33 17.32 27.66 18 28 C17.34 28.66 16.68 29.32 16 30 C15.6596875 29.42894531 15.319375 28.85789063 14.96875 28.26953125 C10.70753959 21.14107021 6.36366599 14.06603782 2 7 C1.01 8.485 1.01 8.485 0 10 C-0.99 10 -1.98 10 -3 10 C-3.75 7.8125 -3.75 7.8125 -4 5 C-2.0625 2.1875 -2.0625 2.1875 0 0 Z " fill="#D1AE2C" transform="translate(199,226)"/>
<path d="M0 0 C3.83572297 4.43279305 6.61784402 9.30177722 9.5 14.375 C9.97308594 15.2 10.44617188 16.025 10.93359375 16.875 C11.86027342 18.49219721 12.7832429 20.11152714 13.70214844 21.7331543 C14.5328975 23.18415224 15.37861845 24.62674291 16.24316406 26.05786133 C19.02593944 30.69521163 19.02593944 30.69521163 18.75 33.9375 C18.5025 34.618125 18.255 35.29875 18 36 C17.34 36 16.68 36 16 36 C15.34 34.35 14.68 32.7 14 31 C13.34 31 12.68 31 12 31 C12 29.02 12 27.04 12 25 C11.34 25 10.68 25 10 25 C9.34 22.03 8.68 19.06 8 16 C7.34 16 6.68 16 6 16 C4.9901527 14.08850332 3.99245505 12.17058431 3 10.25 C2.443125 9.18265625 1.88625 8.1153125 1.3125 7.015625 C0 4 0 4 0 0 Z " fill="#C3B323" transform="translate(322,209)"/>
<path d="M0 0 C0.66 0.66 1.32 1.32 2 2 C1.67751743 3.33599921 1.34227417 4.66893378 1 6 C1.38567131 8.68149993 1.38567131 8.68149993 2 11 C2.99 11.33 3.98 11.66 5 12 C7.25 14.3125 7.25 14.3125 9 17 C8.75 19.3125 8.75 19.3125 8 21 C8.99 20.34 9.98 19.68 11 19 C14.1875 18.875 14.1875 18.875 17 19 C16.67 20.65 16.34 22.3 16 24 C15.34 24 14.68 24 14 24 C14 24.66 14 25.32 14 26 C13.34 26 12.68 26 12 26 C11.67 26.99 11.34 27.98 11 29 C5.79904041 20.4357532 0.69507711 11.85620428 -4 3 C-2.68 2.01 -1.36 1.02 0 0 Z " fill="#CB7F0F" transform="translate(255,253)"/>
<path d="M0 0 C0.66 0 1.32 0 2 0 C3.38938077 1.96147874 4.7260411 3.96166576 6 6 C5.67 6.66 5.34 7.32 5 8 C4.01 7.34 3.02 6.68 2 6 C2 5.34 2 4.68 2 4 C0.29159719 5.63412443 -0.93453047 6.86906094 -2 9 C-2.66 9 -3.32 9 -4 9 C-3.855625 10.27875 -3.71125 11.5575 -3.5625 12.875 C-3.48128906 13.59429687 -3.40007812 14.31359375 -3.31640625 15.0546875 C-3.08707039 17.07404316 -3.08707039 17.07404316 -2 19 C-2.99 19 -3.98 19 -5 19 C-5.33 18.34 -5.66 17.68 -6 17 C-6.99 19.475 -6.99 19.475 -8 22 C-8.66 22 -9.32 22 -10 22 C-10.33 23.98 -10.66 25.96 -11 28 C-12.32 28.33 -13.64 28.66 -15 29 C-14.48867859 24.04981593 -13.00238314 20.91035259 -10.3125 16.75 C-7.15059593 11.81317954 -4.12680051 6.82613833 -1.2265625 1.73046875 C-0.82179687 1.15941406 -0.41703125 0.58835938 0 0 Z " fill="#D79F2D" transform="translate(200,171)"/>
<path d="M0 0 C0.99 0.33 1.98 0.66 3 1 C3.75 2.9375 3.75 2.9375 4 5 C3.67 5.66 3.34 6.32 3 7 C-3.27 7.33 -9.54 7.66 -16 8 C-18 11.76429774 -18 11.76429774 -19 15 C-21 17 -21 17 -24 18 C-24.66 17.67 -25.32 17.34 -26 17 C-25.20994338 15.56161448 -24.41788955 14.12432585 -23.625 12.6875 C-23.18414062 11.88699219 -22.74328125 11.08648437 -22.2890625 10.26171875 C-21.26486665 8.46472057 -20.14732862 6.72099292 -19 5 C-16.93701172 4.65942383 -16.93701172 4.65942383 -14.4296875 4.70703125 C-13.53378906 4.71669922 -12.63789063 4.72636719 -11.71484375 4.73632812 C-10.30912109 4.7740332 -10.30912109 4.7740332 -8.875 4.8125 C-7.93011719 4.82603516 -6.98523438 4.83957031 -6.01171875 4.85351562 C-3.67391221 4.88893694 -1.33723763 4.93832729 1 5 C0.67 3.35 0.34 1.7 0 0 Z " fill="#B8A028" transform="translate(241,297)"/>
<path d="M0 0 C0.33 0 0.66 0 1 0 C0.57229939 5.45318275 -0.48501508 7.89918426 -4 12 C-6.98195255 16.79433688 -9.4604151 21.54147173 -11 27 C-12.32 27 -13.64 27 -15 27 C-15 23.55235034 -14.45673685 22.90923769 -12.5 20.1875 C-9.24179846 15.48293691 -6.42260525 10.59765907 -3.62890625 5.61010742 C-1.08976984 1.08976984 -1.08976984 1.08976984 0 0 Z " fill="#815620" transform="translate(265,228)"/>
<path d="M0 0 C3.2460194 2.79260716 5.18084751 6.41243489 7.3125 10.0625 C8.10622119 11.41438536 8.90049387 12.76594707 9.6953125 14.1171875 C10.27780762 15.1086377 10.27780762 15.1086377 10.87207031 16.12011719 C11.87558714 17.79264524 12.93051271 19.43408429 13.9921875 21.0703125 C14.55164063 21.93398438 15.11109375 22.79765625 15.6875 23.6875 C16.18636719 24.43386719 16.68523437 25.18023437 17.19921875 25.94921875 C18 28 18 28 17.14453125 30.26953125 C16.76683594 30.84058594 16.38914062 31.41164063 16 32 C13.8480563 28.77208445 13.79913557 27.71599191 14 24 C13.01 23.67 12.02 23.34 11 23 C9.66666667 21 8.33333333 19 7 17 C6.34 17 5.68 17 5 17 C4.67 14.03 4.34 11.06 4 8 C3.01 7.67 2.02 7.34 1 7 C0.67 4.69 0.34 2.38 0 0 Z " fill="#EFB61F" transform="translate(255,264)"/>
<path d="M0 0 C2.875 0.6875 2.875 0.6875 6 2 C7.64530416 4.91667555 8 6.64720982 8 10 C8.66 10 9.32 10 10 10 C10 11.32 10 12.64 10 14 C10.99 14.33 11.98 14.66 13 15 C13.33 16.98 13.66 18.96 14 21 C10.76612108 18.04732794 8.77754751 15.12077252 6.75 11.25 C6.22921875 10.26515625 5.7084375 9.2803125 5.171875 8.265625 C4.78515625 7.51796875 4.3984375 6.7703125 4 6 C3.01 6 2.02 6 1 6 C-0.32 8.31 -1.64 10.62 -3 13 C-3.33 13 -3.66 13 -4 13 C-4 11.02 -4 9.04 -4 7 C-3.34 7 -2.68 7 -2 7 C-1.34 4.69 -0.68 2.38 0 0 Z " fill="#A88826" transform="translate(297,229)"/>
<path d="M0 0 C3.13408736 2.69609379 4.90893625 6.11883064 6.875 9.6875 C9.15945075 13.77380073 11.46241551 17.81311892 14 21.75 C16 25 16 25 16 27 C13.625 26.3125 13.625 26.3125 11 25 C10 22.9375 10 22.9375 9 20 C7.39967961 16.9624492 5.70192916 13.98162398 4 11 C3.34 11 2.68 11 2 11 C0.80712589 7.12315913 0 4.08378077 0 0 Z " fill="#AE922A" transform="translate(306,182)"/>
<path d="M0 0 C0.33 0 0.66 0 1 0 C1.19388736 4.84718393 0.68831526 8.46265273 -1 13 C-1 13.66 -1 14.32 -1 15 C-4.96 16.98 -4.96 16.98 -9 19 C-9.33 18.34 -9.66 17.68 -10 17 C-9.30322266 15.32006836 -9.30322266 15.32006836 -8.1640625 13.33984375 C-7.55691406 12.2734668 -7.55691406 12.2734668 -6.9375 11.18554688 C-6.504375 10.44369141 -6.07125 9.70183594 -5.625 8.9375 C-5.19960938 8.19177734 -4.77421875 7.44605469 -4.3359375 6.67773438 C-1.18025386 1.18025386 -1.18025386 1.18025386 0 0 Z " fill="#A2721E" transform="translate(286,192)"/>
<path d="M0 0 C0.825 0.185625 1.65 0.37125 2.5 0.5625 C6.61926719 1.0774084 9.90823355 0.63492928 14 0 C13.67 0.99 13.34 1.98 13 3 C12.34 3 11.68 3 11 3 C11 4.32 11 5.64 11 7 C7.53510463 7.72945166 4.53576478 8 1 8 C0.67 5.36 0.34 2.72 0 0 Z " fill="#D8951E" transform="translate(170,256)"/>
<path d="M0 0 C1.61949011 2.57213134 2.04408751 3.67669159 1.625 6.75 C1.41875 7.4925 1.2125 8.235 1 9 C0.34 9 -0.32 9 -1 9 C-1.66 10.32 -2.32 11.64 -3 13 C-3.99 13 -4.98 13 -6 13 C-6.03738281 13.61488281 -6.07476562 14.22976562 -6.11328125 14.86328125 C-6.17902344 15.67152344 -6.24476563 16.47976562 -6.3125 17.3125 C-6.37050781 18.11300781 -6.42851562 18.91351563 -6.48828125 19.73828125 C-7.08206694 22.36272334 -7.95780294 23.30820672 -10 25 C-11.23076923 19.58461538 -11.23076923 19.58461538 -10.0625 16.625 C-9.711875 16.08875 -9.36125 15.5525 -9 15 C-8.34 15 -7.68 15 -7 15 C-7 14.01 -7 13.02 -7 12 C-6.34 11.67 -5.68 11.34 -5 11 C-4.29289322 9.35008418 -3.63437344 7.6792238 -3 6 C-2.01517978 3.99248185 -1.01847486 1.99065541 0 0 Z " fill="#D98F1C" transform="translate(174,219)"/>
<path d="M0 0 C2 3 2 3 1.5 5.5625 C1.335 6.366875 1.17 7.17125 1 8 C1.66 8.66 2.32 9.32 3 10 C2.67 11.32 2.34 12.64 2 14 C-0.97 14 -3.94 14 -7 14 C-5.23570801 9.02790438 -2.6060834 4.56561939 0 0 Z " fill="#DCCF18" transform="translate(214,315)"/>
<path d="M0 0 C0.99 0 1.98 0 3 0 C3.33 1.32 3.66 2.64 4 4 C2.35 4 0.7 4 -1 4 C-1.12375 4.680625 -1.2475 5.36125 -1.375 6.0625 C-1.58125 7.031875 -1.7875 8.00125 -2 9 C-2.226875 10.155 -2.45375 11.31 -2.6875 12.5 C-4.3580403 16.95477412 -6.19048812 18.2670893 -10 21 C-10 13.96005884 -4.39672268 5.45800056 0 0 Z " fill="#A17723" transform="translate(298,171)"/>
<path d="M0 0 C1.22589844 0.01353516 1.22589844 0.01353516 2.4765625 0.02734375 C3.41628906 0.04474609 3.41628906 0.04474609 4.375 0.0625 C3.15167897 2.50914205 2.26255702 2.80587967 -0.15234375 4.0078125 C-0.86197266 4.36230469 -1.57160156 4.71679688 -2.30273438 5.08203125 C-3.04845703 5.44683594 -3.79417969 5.81164062 -4.5625 6.1875 C-5.30435547 6.56003906 -6.04621094 6.93257813 -6.81054688 7.31640625 C-12.35805861 10.0625 -12.35805861 10.0625 -14.625 10.0625 C-14.625 8.7425 -14.625 7.4225 -14.625 6.0625 C-11.97271188 4.98724806 -9.34131546 3.96793849 -6.625 3.0625 C-6.625 2.4025 -6.625 1.7425 -6.625 1.0625 C-4.21954362 -0.14022819 -2.67503047 -0.03821472 0 0 Z " fill="#B69124" transform="translate(278.625,320.9375)"/>
<path d="M0 0 C2.4375 1.5625 2.4375 1.5625 5 4 C5.8125 7.75 5.8125 7.75 6 11 C4.68 9.68 3.36 8.36 2 7 C1.01 8.485 1.01 8.485 0 10 C-0.99 10 -1.98 10 -3 10 C-3.75 7.8125 -3.75 7.8125 -4 5 C-2.0625 2.1875 -2.0625 2.1875 0 0 Z " fill="#BE8E20" transform="translate(199,226)"/>
<path d="M0 0 C2.63520741 2.40502363 4.40302943 5.0185849 6.25 8.0625 C7.06210937 9.37927734 7.06210937 9.37927734 7.890625 10.72265625 C8.25671875 11.47417969 8.6228125 12.22570312 9 13 C8 15 8 15 6 16 C6 15.34 6 14.68 6 14 C5.34 14 4.68 14 4 14 C0.62808288 8.94212432 -0.23926553 6.22090367 0 0 Z " fill="#A78123" transform="translate(273,294)"/>
<path d="M0 0 C4 6 4 6 4 8 C4.66 8.33 5.32 8.66 6 9 C5 10 5 10 1.5625 10.1875 C-2 10 -2 10 -4 8 C-3.34 7.34 -2.68 6.68 -2 6 C-1.83312552 3.41645782 -1.83312552 3.41645782 -2 1 C-1.34 0.67 -0.68 0.34 0 0 Z " fill="#F8E50D" transform="translate(217,314)"/>
<path d="M0 0 C1.33333333 0.66666667 2.66666667 1.33333333 4 2 C4.721875 2.20625 5.44375 2.4125 6.1875 2.625 C8.4708019 4.35716006 8.44907936 5.22399958 8.875 8 C9.1171875 10.125 9.1171875 10.125 9 12 C8.34 12.66 7.68 13.32 7 14 C5.82807953 12.04480616 4.6626071 10.0857461 3.5 8.125 C2.8503125 7.03445313 2.200625 5.94390625 1.53125 4.8203125 C0 2 0 2 0 0 Z " fill="#B69926" transform="translate(229,278)"/>
<path d="M0 0 C2.96655321 3.55854831 5.45858103 7.1982268 7.8125 11.1875 C8.43769531 12.23292969 9.06289063 13.27835938 9.70703125 14.35546875 C10.13371094 15.22816406 10.56039063 16.10085937 11 17 C10.67 17.66 10.34 18.32 10 19 C9.34 19 8.68 19 8 19 C8 18.01 8 17.02 8 16 C7.34 16 6.68 16 6 16 C4.9901527 14.08850332 3.99245505 12.17058431 3 10.25 C2.443125 9.18265625 1.88625 8.1153125 1.3125 7.015625 C0 4 0 4 0 0 Z " fill="#AA9A23" transform="translate(322,209)"/>
<path d="M0 0 C1.65 0.99 3.3 1.98 5 3 C4.67 4.65 4.34 6.3 4 8 C3.01 7.01 2.02 6.02 1 5 C0.608125 5.721875 0.21625 6.44375 -0.1875 7.1875 C-2.50590203 10.78502039 -5.1181521 14.05907605 -9 16 C-7.375 10.25 -7.375 10.25 -4 8 C-2.78581167 6.0533929 -2.78581167 6.0533929 -1.8125 3.875 C-1.46832031 3.15054688 -1.12414062 2.42609375 -0.76953125 1.6796875 C-0.51558594 1.12539062 -0.26164063 0.57109375 0 0 Z " fill="#E7B81D" transform="translate(217,202)"/>
<path d="M0 0 C9 10.66666667 9 10.66666667 9 16 C6 15 6 15 4 13 C3.01 13.495 3.01 13.495 2 14 C1.66179834 12.4176994 1.32964061 10.83410625 1 9.25 C0.814375 8.36828125 0.62875 7.4865625 0.4375 6.578125 C0 4 0 4 0 0 Z " fill="#9E7923" transform="translate(206,179)"/>
<path d="M0 0 C1.32 0.66 2.64 1.32 4 2 C3.01 3.485 3.01 3.485 2 5 C1.67 5.99 1.34 6.98 1 8 C-1 10 -1 10 -4 11 C-4.66 10.67 -5.32 10.34 -6 10 C-5.18957164 8.51969728 -4.37659652 7.04078858 -3.5625 5.5625 C-2.88380859 4.32693359 -2.88380859 4.32693359 -2.19140625 3.06640625 C-1 1 -1 1 0 0 Z " fill="#C1AE1F" transform="translate(221,304)"/>
<path d="M0 0 C1.07033136 3.21822604 0.95795392 5.03142433 -0.25 8.1875 C-0.62898438 9.22970703 -0.62898438 9.22970703 -1.015625 10.29296875 C-2 12 -2 12 -5 13 C-5.33 10.36 -5.66 7.72 -6 5 C-5.38125 4.731875 -4.7625 4.46375 -4.125 4.1875 C-1.7004767 3.04443152 -1.7004767 3.04443152 0 0 Z " fill="#DDCD1E" transform="translate(336,244)"/>
<path d="M0 0 C0.66 0.99 1.32 1.98 2 3 C1.01 4.485 1.01 4.485 0 6 C0.0825 6.78375 0.165 7.5675 0.25 8.375 C0 11 0 11 -1.328125 12.43359375 C-2.83956166 13.68017586 -4.41696338 14.84570247 -6 16 C-7.02388876 9.51537118 -3.42721347 5.16122028 0 0 Z " fill="#B07C26" transform="translate(181,203)"/>
<path d="M0 0 C1.32 0 2.64 0 4 0 C2.63408831 3.54243452 1.09068516 6.92627929 -0.625 10.3125 C-1.07101562 11.19550781 -1.51703125 12.07851563 -1.9765625 12.98828125 C-2.31429688 13.65214844 -2.65203125 14.31601562 -3 15 C-5 12 -5 12 -5 8 C-4.34 8 -3.68 8 -3 8 C-3 7.34 -3 6.68 -3 6 C-2.34 6 -1.68 6 -1 6 C-0.67 4.02 -0.34 2.04 0 0 Z " fill="#956720" transform="translate(272,271)"/>
<path d="M0 0 C0.33 0.99 0.66 1.98 1 3 C0.505 3.433125 0.01 3.86625 -0.5 4.3125 C-2.33218192 5.99740483 -2.33218192 5.99740483 -2 9 C-2.99 9.495 -2.99 9.495 -4 10 C-4.33 10.99 -4.66 11.98 -5 13 C-7.5625 14.6875 -7.5625 14.6875 -10 16 C-7.90139885 10.08576039 -5.30277956 3.53518637 0 0 Z " fill="#CD801C" transform="translate(265,235)"/>
<path d="M0 0 C0.66 0 1.32 0 2 0 C3.38938077 1.96147874 4.7260411 3.96166576 6 6 C5.67 6.66 5.34 7.32 5 8 C4.01 7.34 3.02 6.68 2 6 C2 5.34 2 4.68 2 4 C0.29159719 5.63412443 -0.93453047 6.86906094 -2 9 C-2.66 9 -3.32 9 -4 9 C-4 9.99 -4 10.98 -4 12 C-4.66 12 -5.32 12 -6 12 C-4.68448876 7.39571066 -2.90803514 3.81679612 0 0 Z " fill="#886727" transform="translate(200,171)"/>
<path d="M0 0 C0.66 0.66 1.32 1.32 2 2 C1.67751743 3.33599921 1.34227417 4.66893378 1 6 C1.38567131 8.68149993 1.38567131 8.68149993 2 11 C2.99 11.33 3.98 11.66 5 12 C5 12.99 5 13.98 5 15 C1.03126566 13.67708855 0.70094963 12.08850262 -1.1875 8.4375 C-1.71730469 7.42558594 -2.24710938 6.41367187 -2.79296875 5.37109375 C-3.19128906 4.58863281 -3.58960938 3.80617188 -4 3 C-2.68 2.01 -1.36 1.02 0 0 Z " fill="#C2730D" transform="translate(255,253)"/>
<path d="M0 0 C0.433125 0.61875 0.86625 1.2375 1.3125 1.875 C2.99740483 4.2197245 2.99740483 4.2197245 6 6 C6.67904468 9.39522342 7 12.53993431 7 16 C6.01 15.34 5.02 14.68 4 14 C4 12.68 4 11.36 4 10 C3.34 10 2.68 10 2 10 C1.01 7.03 0.02 4.06 -1 1 C-0.67 0.67 -0.34 0.34 0 0 Z " fill="#EBCB20" transform="translate(303,229)"/>
<path d="M0 0 C2.8125 -0.3125 2.8125 -0.3125 6 0 C7.9375 2.375 7.9375 2.375 9 5 C8.67 5.66 8.34 6.32 8 7 C5.5625 6.625 5.5625 6.625 3 6 C2.67 5.34 2.34 4.68 2 4 C1.01 4 0.02 4 -1 4 C-0.67 2.68 -0.34 1.36 0 0 Z " fill="#BF8D25" transform="translate(297,175)"/>
<path d="M0 0 C0.33 1.32 0.66 2.64 1 4 C0.01 4.33 -0.98 4.66 -2 5 C-2.103125 5.70125 -2.20625 6.4025 -2.3125 7.125 C-3.10571772 10.44209227 -4.2659086 13.06538379 -6 16 C-6.99 16.33 -7.98 16.66 -9 17 C-7.68925635 12.53817564 -5.92933989 9.00381243 -3.375 5.125 C-2.74335938 4.15820312 -2.11171875 3.19140625 -1.4609375 2.1953125 C-0.73777344 1.10863281 -0.73777344 1.10863281 0 0 Z " fill="#7A581D" transform="translate(275,211)"/>
<path d="M0 0 C3.67758005 3.28355362 5.81389118 6.62778237 8 11 C7.67 11.66 7.34 12.32 7 13 C6.34 12.67 5.68 12.34 5 12 C5 11.34 5 10.68 5 10 C4.360625 9.71125 3.72125 9.4225 3.0625 9.125 C1 8 1 8 0 6 C-0.039992 4.00039988 -0.04346799 1.99952758 0 0 Z " fill="#A68B26" transform="translate(241,239)"/>
<path d="M0 0 C0.66 0.66 1.32 1.32 2 2 C1.67 2.66 1.34 3.32 1 4 C0.34 4 -0.32 4 -1 4 C-1 5.98 -1 7.96 -1 10 C-2.65 9.67 -4.3 9.34 -6 9 C-4.83857315 4.64464931 -3.92300495 2.35380297 0 0 Z " fill="#E2A31B" transform="translate(294,232)"/>
<path d="M0 0 C2 1 2 1 3.125 4.0625 C3.41375 5.031875 3.7025 6.00125 4 7 C0.71303767 7.79953138 -0.71023192 8.09658936 -4 7 C-3.02391783 4.07175348 -1.89213369 2.38573379 0 0 Z " fill="#F5D412" transform="translate(324,217)"/>
<path d="M0 0 C1.98 0 3.96 0 6 0 C5.67 1.65 5.34 3.3 5 5 C4.34 5 3.68 5 3 5 C3 5.66 3 6.32 3 7 C2.34 7 1.68 7 1 7 C0.67 7.99 0.34 8.98 0 10 C-0.33 7.69 -0.66 5.38 -1 3 C-0.34 3 0.32 3 1 3 C0.67 2.01 0.34 1.02 0 0 Z " fill="#D58519" transform="translate(266,272)"/>
<path d="M0 0 C2.30874711 2.16614803 4.05290181 4.39206608 5.75 7.0625 C6.19859375 7.75472656 6.6471875 8.44695312 7.109375 9.16015625 C7.40328125 9.76730469 7.6971875 10.37445313 8 11 C7.67 11.66 7.34 12.32 7 13 C4.625 12.4375 4.625 12.4375 2 11 C0.48351612 7.10047002 0 4.1914598 0 0 Z " fill="#9C7522" transform="translate(306,182)"/>
<path d="M0 0 C1.98 0 3.96 0 6 0 C6 3.3 6 6.6 6 10 C3.61405803 8.80702902 3.16265153 7.85642735 1.875 5.5625 C1.52179688 4.94503906 1.16859375 4.32757813 0.8046875 3.69140625 C0 2 0 2 0 0 Z " fill="#BBAA1F" transform="translate(313,254)"/>
<path d="M0 0 C0.66 0 1.32 0 2 0 C2 0.66 2 1.32 2 2 C2.99 2 3.98 2 5 2 C6.25664978 4.90600261 7 6.79604584 7 10 C7.66 10.33 8.32 10.66 9 11 C8.34 11.66 7.68 12.32 7 13 C6.01719585 11.39805929 5.03888283 9.79336258 4.0625 8.1875 C3.51722656 7.29417969 2.97195312 6.40085938 2.41015625 5.48046875 C1 3 1 3 0 0 Z " fill="#9A7F26" transform="translate(208,243)"/>
<path d="M0 0 C0.33 0 0.66 0 1 0 C1.31563182 5.26053037 0.66590937 8.44573816 -2 13 C-2.33 13 -2.66 13 -3 13 C-3.27131956 7.66404866 -3.4266889 4.38616179 0 0 Z " fill="#B0811E" transform="translate(286,192)"/>
<path d="M0 0 C2 0 2 0 4.125 2 C4.74375 2.66 5.3625 3.32 6 4 C5.67 4.66 5.34 5.32 5 6 C3.68 5.34 2.36 4.68 1 4 C0.67 4.99 0.34 5.98 0 7 C-1.32 7 -2.64 7 -4 7 C-4 6.34 -4 5.68 -4 5 C-3.34 5 -2.68 5 -2 5 C-1.34 3.35 -0.68 1.7 0 0 Z " fill="#D8A420" transform="translate(200,175)"/>
<path d="M0 0 C3.67882073 3.28466137 5.75150101 6.66360908 8 11 C8 11.66 8 12.32 8 13 C6.68 12.67 5.36 12.34 4 12 C3.566875 10.2984375 3.566875 10.2984375 3.125 8.5625 C2.75375 7.386875 2.3825 6.21125 2 5 C1.34 4.67 0.68 4.34 0 4 C0 2.68 0 1.36 0 0 Z " fill="#EBB827" transform="translate(247,251)"/>
<path d="M0 0 C0.99 0.33 1.98 0.66 3 1 C3 1.99 3 2.98 3 4 C3.66 4 4.32 4 5 4 C5 4.99 5 5.98 5 7 C5.66 7 6.32 7 7 7 C7.33 9.64 7.66 12.28 8 15 C5.84821844 12.23612808 4.01629579 9.43466931 2.3125 6.375 C1.87550781 5.59898437 1.43851563 4.82296875 0.98828125 4.0234375 C0 2 0 2 0 0 Z " fill="#83591F" transform="translate(163,248)"/>
<path d="M0 0 C1 2 1 2 0.0625 5.125 C-0.288125 6.07375 -0.63875 7.0225 -1 8 C-2.32 8 -3.64 8 -5 8 C-5 5 -5 5 -2.5 2.3125 C-1.675 1.549375 -0.85 0.78625 0 0 Z " fill="#8F551B" transform="translate(255,247)"/>
<path d="M0 0 C2.475 0.99 2.475 0.99 5 2 C5 3.98 5 5.96 5 8 C3.68 8 2.36 8 1 8 C-0.35439668 5.29120665 -0.06501451 2.99066732 0 0 Z " fill="#EFD91F" transform="translate(312,246)"/>
<path d="M0 0 C0.66 0 1.32 0 2 0 C2.89434157 1.40453643 3.76493192 2.82421869 4.625 4.25 C5.11226563 5.03890625 5.59953125 5.8278125 6.1015625 6.640625 C7 9 7 9 6.1484375 11.296875 C5.76945312 11.85890625 5.39046875 12.4209375 5 13 C2.8480563 9.77208445 2.79913557 8.71599191 3 5 C2.01 4.67 1.02 4.34 0 4 C0 2.68 0 1.36 0 0 Z " fill="#BC972A" transform="translate(266,283)"/>
<path d="M0 0 C3.23630934 1.61815467 4.72495356 4.68198143 6 8 C5.25 10.4375 5.25 10.4375 4 12 C2 11 2 11 0.875 7.6875 C0 4 0 4 0 0 Z " fill="#876821" transform="translate(282,309)"/>
<path d="M0 0 C0.99 0.33 1.98 0.66 3 1 C1.66654496 4.59007126 0.1056769 7.79570907 -2 11 C-2.33 11 -2.66 11 -3 11 C-3 9.02 -3 7.04 -3 5 C-2.34 5 -1.68 5 -1 5 C-0.67 3.35 -0.34 1.7 0 0 Z " fill="#936C23" transform="translate(296,231)"/>
<path d="M0 0 C2.43542455 1.90598443 3.00158196 3.00596275 3.8125 6.0625 C3.874375 7.031875 3.93625 8.00125 4 9 C3.34 9.66 2.68 10.32 2 11 C-0.32590854 7.36576791 -0.16265833 4.22911669 0 0 Z " fill="#C29C20" transform="translate(273,294)"/>
<path d="M0 0 C2 0 2 0 3.625 1.25 C5 3 5 3 5 7 C3.68 6.67 2.36 6.34 1 6 C0.67 6.66 0.34 7.32 0 8 C0 5.36 0 2.72 0 0 Z " fill="#E4AB1A" transform="translate(210,192)"/>
<path d="M0 0 C0.99 0.33 1.98 0.66 3 1 C0.17493137 3.9297008 -2.78796065 6.50174717 -6 9 C-5.67 7.35 -5.34 5.7 -5 4 C-4.34 4 -3.68 4 -3 4 C-2.67 3.01 -2.34 2.02 -2 1 C-1.34 0.67 -0.68 0.34 0 0 Z " fill="#DBA124" transform="translate(293,187)"/>
<path d="M0 0 C0.66 0 1.32 0 2 0 C2 0.66 2 1.32 2 2 C4.97 2.495 4.97 2.495 8 3 C8 3.33 8 3.66 8 4 C2.72 4 -2.56 4 -8 4 C-8 3.67 -8 3.34 -8 3 C-6.865625 2.87625 -5.73125 2.7525 -4.5625 2.625 C-3.386875 2.41875 -2.21125 2.2125 -1 2 C-0.67 1.34 -0.34 0.68 0 0 Z " fill="#EDCD24" transform="translate(256,326)"/>
<path d="M0 0 C0.99 0.33 1.98 0.66 3 1 C3 2.32 3 3.64 3 5 C3.99 5.33 4.98 5.66 6 6 C6 7.32 6 8.64 6 10 C6.66 10.33 7.32 10.66 8 11 C7.01 11 6.02 11 5 11 C4.16151196 9.54462432 3.32936066 8.08559627 2.5 6.625 C1.80390625 5.40683594 1.80390625 5.40683594 1.09375 4.1640625 C0 2 0 2 0 0 Z " fill="#8A7022" transform="translate(222,266)"/>
<path d="M0 0 C1.65 0 3.3 0 5 0 C4.67 1.65 4.34 3.3 4 5 C3.01 5.33 2.02 5.66 1 6 C0.67 4.02 0.34 2.04 0 0 Z " fill="#926B2D" transform="translate(174,266)"/>
<path d="M0 0 C2 3 2 3 1.875 5 C0.76097537 7.54634201 -0.69550623 8.51322983 -3 10 C-3 5.66905042 -2.03435531 3.72965139 0 0 Z " fill="#AEA121" transform="translate(214,315)"/>
<path d="M0 0 C0.99 0 1.98 0 3 0 C3 1.32 3 2.64 3 4 C3.99 4.33 4.98 4.66 6 5 C6.33 6.98 6.66 8.96 7 11 C4.0444623 8.24829249 1.88436685 5.58029701 0 2 C0 1.34 0 0.68 0 0 Z " fill="#7C6A1C" transform="translate(304,239)"/>
<path d="M0 0 C0.99 0 1.98 0 3 0 C3.66 2.31 4.32 4.62 5 7 C4.01 7 3.02 7 2 7 C1.67 6.34 1.34 5.68 1 5 C0.01 5 -0.98 5 -2 5 C-1.34 3.35 -0.68 1.7 0 0 Z " fill="#BA861C" transform="translate(193,183)"/>
<path d="M0 0 C2.31 0.33 4.62 0.66 7 1 C6.34 2.32 5.68 3.64 5 5 C4.01 5 3.02 5 2 5 C1.34 3.35 0.68 1.7 0 0 Z " fill="#A49A2F" transform="translate(320,266)"/>
<path d="M0 0 C0.99 0 1.98 0 3 0 C3.33 1.32 3.66 2.64 4 4 C2.35 4 0.7 4 -1 4 C-1.66 5.32 -2.32 6.64 -3 8 C-3 4.38462395 -2.10770759 2.88834003 0 0 Z " fill="#6D4D1E" transform="translate(298,171)"/>
<path d="M0 0 C0.33 0.66 0.66 1.32 1 2 C3.02463255 2.65213292 3.02463255 2.65213292 5 3 C4.67 3.99 4.34 4.98 4 6 C4 5.34 4 4.68 4 4 C2.35 4 0.7 4 -1 4 C-1.33 4.66 -1.66 5.32 -2 6 C-2.33 4.68 -2.66 3.36 -3 2 C-2.01 1.34 -1.02 0.68 0 0 Z " fill="#AF7B1D" transform="translate(175,262)"/>
<path d="M0 0 C1.32 0.33 2.64 0.66 4 1 C3.67 3.31 3.34 5.62 3 8 C2.34 8 1.68 8 1 8 C0.67 5.36 0.34 2.72 0 0 Z " fill="#C78822" transform="translate(170,256)"/>
<path d="M0 0 C2.91227269 3.28804981 4.49701212 5.59885603 5 10 C1.32769295 6.92000054 0.43197635 4.7517398 0 0 Z " fill="#9A872D" transform="translate(322,209)"/>
<path d="M0 0 C0.33 1.32 0.66 2.64 1 4 C0.34 4 -0.32 4 -1 4 C-1.33 5.65 -1.66 7.3 -2 9 C-2.99 9.33 -3.98 9.66 -5 10 C-3.66511872 6.40608886 -2.03977277 3.24509304 0 0 Z " fill="#875E21" transform="translate(190,188)"/>
<path d="M0 0 C-4.75 4 -4.75 4 -7 4 C-7 2.68 -7 1.36 -7 0 C-3.98968256 -0.93423645 -3.13349732 -1.04449911 0 0 Z " fill="#A88824" transform="translate(271,327)"/>
<path d="M0 0 C1.32 0 2.64 0 4 0 C4.33 2.64 4.66 5.28 5 8 C2.20127563 5.47211993 0.54226981 3.79588866 0 0 Z " fill="#8F771F" transform="translate(237,292)"/>
<path d="M0 0 C0.33 0 0.66 0 1 0 C1.125 5.75 1.125 5.75 0 8 C-0.99 8 -1.98 8 -3 8 C-3 7.01 -3 6.02 -3 5 C-2.34 5 -1.68 5 -1 5 C-0.67 3.35 -0.34 1.7 0 0 Z " fill="#BA812B" transform="translate(277,263)"/>
<path d="M0 0 C0.33 0.66 0.66 1.32 1 2 C2.32 1.67 3.64 1.34 5 1 C4.01 2.485 4.01 2.485 3 4 C2.34 4 1.68 4 1 4 C0.67 4.99 0.34 5.98 0 7 C-1 6 -1 6 -1.125 3.5 C-1 1 -1 1 0 0 Z " fill="#DD9E16" transform="translate(282,248)"/>
<path d="M0 0 C1.32 0.33 2.64 0.66 4 1 C4 1.99 4 2.98 4 4 C3.34 4 2.68 4 2 4 C1.67 4.99 1.34 5.98 1 7 C0.67 4.69 0.34 2.38 0 0 Z " fill="#DB941D" transform="translate(272,264)"/>
<path d="M0 0 C3.08089673 2.77280706 4.68775452 5.06326356 6 9 C5.01 8.67 4.02 8.34 3 8 C3 7.01 3 6.02 3 5 C2.01 4.67 1.02 4.34 0 4 C0 2.68 0 1.36 0 0 Z " fill="#7A5A1C" transform="translate(215,195)"/>
<path d="M0 0 C2.5 2.3125 2.5 2.3125 5 5 C5 5.99 5 6.98 5 8 C2.21611025 6.29374499 1.14615794 5.52373261 0.25 2.3125 C0.1675 1.549375 0.085 0.78625 0 0 Z " fill="#A6802D" transform="translate(312,194)"/>
<path d="M0 0 C1.32 0.33 2.64 0.66 4 1 C3.39816251 3.02045442 2.72693904 5.02111039 2 7 C1.01 7.495 1.01 7.495 0 8 C0 5.36 0 2.72 0 0 Z " fill="#8F8416" transform="translate(329,255)"/>
<path d="M0 0 C0.66 0 1.32 0 2 0 C1.43628586 3.26954202 0.50037734 4.82575883 -2 7 C-2.33 6.34 -2.66 5.68 -3 5 C-1.6875 2.375 -1.6875 2.375 0 0 Z " fill="#8C6024" transform="translate(269,221)"/>
<path d="M0 0 C1.33332095 2.6666419 0.67102033 4.16680303 0 7 C-1.32 6.67 -2.64 6.34 -4 6 C-3.67 5.01 -3.34 4.02 -3 3 C-2.34 3 -1.68 3 -1 3 C-0.67 2.01 -0.34 1.02 0 0 Z " fill="#ECB514" transform="translate(207,219)"/>
<path d="M0 0 C1.125 3.75 1.125 3.75 0 6 C-0.66 6 -1.32 6 -2 6 C-2 6.99 -2 7.98 -2 9 C-2.66 9 -3.32 9 -4 9 C-2.94124926 5.59687262 -1.99097846 2.98646769 0 0 Z " fill="#7F5C21" transform="translate(198,174)"/>
</svg>
